# xmcd
#
# Track frame offsets:
#	183
#	25035
#	44083
#	63335
#	85023
#	103680
#	148758
#	168513
#	192058
#
# Disc length: 2753 seconds
#
# Revision: 0
# Processed by: cddbd v1.5.2PL0 Copyright (c) Steve Scherf et al.
# Submitted via: dBpowerAMP V4.0
#
DISCID=750abf09
DTITLE=ali primera - cuando nombro la poesia
DYEAR=1900
DGENRE=
TTITLE0=cuando nombro la poesia
TTITLE1=paraguanera
TTITLE2=zapatos de mi conciencia
TTITLE3=frutal el amor
TTITLE4=panfleto de una sola nota
TTITLE5=flora y ceferino
TTITLE6=es de noche
TTITLE7=borincana
TTITLE8=la soga
EXTD=
EXTT0=
EXTT1=
EXTT2=
EXTT3=
EXTT4=
EXTT5=
EXTT6=
EXTT7=
EXTT8=
PLAYORDER=
